<mxfile host="Electron" modified="2024-04-19T09:42:00.043Z" agent="Mozilla/5.0 (Windows NT 10.0; Win64; x64) AppleWebKit/537.36 (KHTML, like Gecko) draw.io/22.0.3 Chrome/114.0.5735.289 Electron/25.8.4 Safari/537.36" etag="YXNXKz5a-KkzRtMtBwhh" version="22.0.3" type="device" pages="2">
  <diagram name="Architectura" id="LXLZBYNUWH1usaprsNK4">
    <mxGraphModel dx="1036" dy="606" grid="1" gridSize="10" guides="1" tooltips="1" connect="1" arrows="1" fold="1" page="1" pageScale="1" pageWidth="827" pageHeight="1169" math="0" shadow="0">
      <root>
        <mxCell id="0" />
        <mxCell id="1" parent="0" />
        <mxCell id="6uivrf9kxcf0AA_AzKDd-7" value="" style="edgeStyle=orthogonalEdgeStyle;rounded=0;orthogonalLoop=1;jettySize=auto;html=1;" parent="1" source="6uivrf9kxcf0AA_AzKDd-1" target="6uivrf9kxcf0AA_AzKDd-2" edge="1">
          <mxGeometry relative="1" as="geometry" />
        </mxCell>
        <mxCell id="6uivrf9kxcf0AA_AzKDd-1" value="Actor" style="shape=umlActor;verticalLabelPosition=bottom;verticalAlign=top;html=1;outlineConnect=0;" parent="1" vertex="1">
          <mxGeometry x="60" y="170" width="30" height="60" as="geometry" />
        </mxCell>
        <mxCell id="6uivrf9kxcf0AA_AzKDd-10" style="edgeStyle=orthogonalEdgeStyle;rounded=0;orthogonalLoop=1;jettySize=auto;html=1;entryX=0;entryY=0.5;entryDx=0;entryDy=0;" parent="1" source="6uivrf9kxcf0AA_AzKDd-2" edge="1">
          <mxGeometry relative="1" as="geometry">
            <mxPoint x="390" y="155" as="targetPoint" />
          </mxGeometry>
        </mxCell>
        <mxCell id="6uivrf9kxcf0AA_AzKDd-11" style="edgeStyle=orthogonalEdgeStyle;rounded=0;orthogonalLoop=1;jettySize=auto;html=1;" parent="1" source="6uivrf9kxcf0AA_AzKDd-2" edge="1">
          <mxGeometry relative="1" as="geometry">
            <mxPoint x="390" y="250" as="targetPoint" />
          </mxGeometry>
        </mxCell>
        <mxCell id="6uivrf9kxcf0AA_AzKDd-2" value="&lt;br&gt;&lt;br&gt;&lt;br&gt;&lt;br&gt;&lt;br&gt;Web App" style="whiteSpace=wrap;html=1;aspect=fixed;" parent="1" vertex="1">
          <mxGeometry x="190" y="130" width="140" height="140" as="geometry" />
        </mxCell>
        <mxCell id="6uivrf9kxcf0AA_AzKDd-3" value="Monolito Backend" style="whiteSpace=wrap;html=1;aspect=fixed;" parent="1" vertex="1">
          <mxGeometry x="530" y="150" width="80" height="80" as="geometry" />
        </mxCell>
        <mxCell id="6uivrf9kxcf0AA_AzKDd-4" value="DB" style="shape=cylinder3;whiteSpace=wrap;html=1;boundedLbl=1;backgroundOutline=1;size=15;" parent="1" vertex="1">
          <mxGeometry x="680" y="150" width="60" height="80" as="geometry" />
        </mxCell>
        <mxCell id="6uivrf9kxcf0AA_AzKDd-5" value="" style="shape=image;verticalLabelPosition=bottom;labelBackgroundColor=default;verticalAlign=top;aspect=fixed;imageAspect=0;image=data:image/png,iVBORw0KGgoAAAANSUhEUgAAAMgAAADICAMAAACahl6sAAAAe1BMVEX///8AAABTU1NXV1enp6f7+/urq6sJCQn39/ceHh5zc3NtbW0bGxsMDAwYGBjCwsK5ubmdnZ0jIyOVlZXx8fGzs7Pb29sTExPp6enOzs68vLxCQkJcXFw0NDR7e3thYWGFhYXS0tI8PDxFRUXi4uKNjY0uLi5LS0uIiIjXLANOAAAGuElEQVR4nO2d22KiMBCG8YCgiFAFtWoVj+37P+HqZgIKOSCQMLT5b9ay2MxXSDLJZBLLMjJSrGiYeP1OaTcZXgoY4bbXSZ3iF4xlRzEeOi2fHofftjV15KcPZdS2KXU1IhyfTtuG1JXz+eBw523bUV9z9w5ypT/twkhBq65Q0WZHbf+5P5AV+bgK2rarigKwfmZbIflEXrPuiVbw2PLIh6Rti6oqIfZ71hf50LHqkSki9n9ZU/i3syJPYmURoD69fBkNO6FR6pj0SR0HkAFc3TfSrGvR/gWk9woSt2fX+woFIIf2zHpfBwFIvz2z3tfAgCBTCZARbg1Lg1TtmzTJNiDIZECwqQkQ21UpbSAL1fMt8yWv6EZBNLiUvhaQm3qQ3ocOkKkGkIkB+cMgYyXy9YOUKKqCPANiQJowuygDYkAMiFgGpDqImun1s34QpTIgfxJkrAFkzym7UZCTBpChDhAdc/UjjSBqptgn+kFKFFVBQwNiQJowuygDYkAMiFgGxIAYELFaBIliwRD87cW37YFsYMktR6c3l3u2BhKJOdJ1YehBpCHeVUdAhjKQNxsFA2JAXkEmjOH3lxxkP58fjqhAWAXLO04yseSfn77dSZAge/9uSdRhkNeF69P/L1knQT56Od1fsk6C2HmQTK2BDO2i5JWdn2jXsX5kwv3SPDkKvocOZA23MJcWjr1QvLoREYgFrvPieGBGj/z+x1oXiDTB1xGBDMg9j9SuKGEvMTz98EY0zYIsZSAnEUjwCjvasvK3b5w3rOERoiQdyxdnaELtCNMLx8Os8Dt+tIBY4WHA116yghfCeN/P19zQew1TDvSA1BJ07oVh5DH5ykA4IV5UILRzL+4+kbWHPuepogKhnbtX+I+Adi7OhvNVXCDQVozz1+UcyEBo555rYi++lAMZSNq5v16ljbojmKpsCqShfWag28jlbdPNDxLBnwDnyoecJ5PQyyHbBrwgvVeLszrCJ0EKsnstJJCT1AbhD4fqKL+5gZykNshSTYpV3luXktRPFvs8qUApLNGSkaDLQ4yzso9939mmXaCEBB2IS56vb1O/JM0UC4T9OzoQ65sUt0n9qyLJjDFKxAeyIMVts5qXkdBrjIEmPpBLryBKsqAXGNNc+EBYKZqEJOVgbaGDEIQ1gfEgSTnGrEEiQpDPzH4nnUT5kHBgBLFS651gmX5O9zGbsgftGEHo1jiPcdQyP7HF4UAJAp076fdyJDwOlCDuLOPIkXA5UIJYwd32WTo+fyLhc+AEsdzN5skLSUkEHEhBcjrOpBzdACEk7P6Dqhsg1jrZJYJwldUZELkMCDYZEGz6EyDO9L9goOwgF8tmAOm+DAg2GRBs+m0gnFUfXRCzQ+yiDAg2GRBsUg3CzomLmz8xQDEILyeu+UM11ILwc+JWZbdeLSu1IIKcOMFqmUoyIKXEf7VY8eZaUlzZAw7JTHFl78u/8KbckLUfjSQPoYoIiGORJQbChey4RQ9SIaFup7NH28Bq1S8ajkzaNqiqIFTv0TyQ7h//lB7IxV8wjFhhdiBXukC1N4jXjBS2CpJvEN9MOes4XS56tX7JoXX24/H8lmMEf8HBjukRlfEvOWrTspantq2pru1rKDvu6Dmu5+KoYD3ci9LYSgoWjvrSDeL79cs67EfigHwdHYmZgp08wacodUBHi9oQMxf8O+CMUuwne0J+oSAt/Y2tBNoUvDgCFxTSdDnpq2gE3o9geAMDiDf3SNIu4rhNRbcQh/Wmy6Jqgj/3t+ies/ShIRC4bYnoHqhGseie1rUr0bZCC13M0kUkl3Tbvi28iQwbVsKbWhb0IpLpPmjZymx/3ZLsW6nXHyoS4kOJ4YHMJC8Nne9A+0jWK6nHSATt1kyd71pLNgxpfKl9a5gl+EZZ322a9lFiM36ayYPRT4lgSNUbl5hwj+hGO310/Xuc7mhSasYyjWjNmw5g1VL0kW1mUuaUB+s5E/s0bPOpXEISN088b7d9nqpceSX1HNGan3eel5DfGDJ2SlEl96p0lvV2bT6sxVSg/BySuZYBvXyHsPpyNIzoA7kZTZAofyaujvNt7pqrridXPRzCmbFGBO2VMxn+j5v/TBrTDzl7fQJ+mOLJCchAVxk6pXEnta5xSAopc9pUZcGpb2qDs3TjT5VlyGddGxA4e1eVZUCYWa03eSSFzBX6eRE08GrjDjb4el9BQ7HyvNwAHOmZUo60JqqX0vbkroumoLyj3JvX1LWr7titbJsGpdIyMSzZjbUJlRwv11WgOCZ/1rd2bLnw6ofJ2fIW2APXRn9M/wBN45OxgxtgfAAAAABJRU5ErkJggg==;" parent="1" vertex="1">
          <mxGeometry x="230" y="170" width="60" height="60" as="geometry" />
        </mxCell>
        <mxCell id="6uivrf9kxcf0AA_AzKDd-21" value="" style="edgeStyle=orthogonalEdgeStyle;rounded=0;orthogonalLoop=1;jettySize=auto;html=1;" parent="1" source="6uivrf9kxcf0AA_AzKDd-9" target="6uivrf9kxcf0AA_AzKDd-12" edge="1">
          <mxGeometry relative="1" as="geometry" />
        </mxCell>
        <mxCell id="6uivrf9kxcf0AA_AzKDd-9" value="" style="shape=image;verticalLabelPosition=bottom;labelBackgroundColor=default;verticalAlign=top;aspect=fixed;imageAspect=0;image=https://static-00.iconduck.com/assets.00/register-icon-2048x2048-m490ylf1.png;" parent="1" vertex="1">
          <mxGeometry x="405.07" y="220" width="45" height="45" as="geometry" />
        </mxCell>
        <mxCell id="6uivrf9kxcf0AA_AzKDd-12" value="" style="shape=image;verticalLabelPosition=bottom;labelBackgroundColor=default;verticalAlign=top;aspect=fixed;imageAspect=0;image=https://www.creativefabrica.com/wp-content/uploads/2021/12/17/Login-icon-Graphics-21851976-1-1-580x386.jpg;" parent="1" vertex="1">
          <mxGeometry x="390" y="130" width="75.13" height="50" as="geometry" />
        </mxCell>
        <mxCell id="6uivrf9kxcf0AA_AzKDd-13" style="edgeStyle=orthogonalEdgeStyle;rounded=0;orthogonalLoop=1;jettySize=auto;html=1;entryX=0.008;entryY=0.583;entryDx=0;entryDy=0;entryPerimeter=0;" parent="1" source="6uivrf9kxcf0AA_AzKDd-12" target="6uivrf9kxcf0AA_AzKDd-3" edge="1">
          <mxGeometry relative="1" as="geometry" />
        </mxCell>
        <mxCell id="6uivrf9kxcf0AA_AzKDd-14" style="edgeStyle=orthogonalEdgeStyle;rounded=0;orthogonalLoop=1;jettySize=auto;html=1;entryX=0;entryY=0.5;entryDx=0;entryDy=0;entryPerimeter=0;" parent="1" source="6uivrf9kxcf0AA_AzKDd-3" target="6uivrf9kxcf0AA_AzKDd-4" edge="1">
          <mxGeometry relative="1" as="geometry" />
        </mxCell>
        <mxCell id="6uivrf9kxcf0AA_AzKDd-16" value="" style="edgeStyle=orthogonalEdgeStyle;rounded=0;orthogonalLoop=1;jettySize=auto;html=1;" parent="1" source="6uivrf9kxcf0AA_AzKDd-15" target="6uivrf9kxcf0AA_AzKDd-3" edge="1">
          <mxGeometry relative="1" as="geometry" />
        </mxCell>
        <mxCell id="6uivrf9kxcf0AA_AzKDd-15" value="Export / import Credentials&amp;nbsp;" style="whiteSpace=wrap;html=1;aspect=fixed;" parent="1" vertex="1">
          <mxGeometry x="530" y="265" width="80" height="80" as="geometry" />
        </mxCell>
        <mxCell id="6uivrf9kxcf0AA_AzKDd-22" value="Register From" style="text;html=1;strokeColor=none;fillColor=none;align=center;verticalAlign=middle;whiteSpace=wrap;rounded=0;" parent="1" vertex="1">
          <mxGeometry x="398" y="280" width="60" height="30" as="geometry" />
        </mxCell>
        <mxCell id="6uivrf9kxcf0AA_AzKDd-23" value="Login Request" style="text;html=1;strokeColor=none;fillColor=none;align=center;verticalAlign=middle;whiteSpace=wrap;rounded=0;" parent="1" vertex="1">
          <mxGeometry x="390" y="100" width="60" height="30" as="geometry" />
        </mxCell>
        <mxCell id="6uivrf9kxcf0AA_AzKDd-24" value="User / Credentials Managment" style="text;html=1;strokeColor=none;fillColor=none;align=center;verticalAlign=middle;whiteSpace=wrap;rounded=0;" parent="1" vertex="1">
          <mxGeometry x="530" y="100" width="80" height="40" as="geometry" />
        </mxCell>
        <mxCell id="6uivrf9kxcf0AA_AzKDd-25" value="" style="whiteSpace=wrap;html=1;aspect=fixed;fillColor=none;strokeColor=#0000CC;dashed=1;dashPattern=12 12;" parent="1" vertex="1">
          <mxGeometry x="458" y="40" width="335" height="335" as="geometry" />
        </mxCell>
        <mxCell id="6uivrf9kxcf0AA_AzKDd-26" value="Docker Compose Stack" style="text;html=1;strokeColor=none;fillColor=none;align=center;verticalAlign=middle;whiteSpace=wrap;rounded=0;" parent="1" vertex="1">
          <mxGeometry x="670" y="70" width="60" height="30" as="geometry" />
        </mxCell>
      </root>
    </mxGraphModel>
  </diagram>
  <diagram id="U1KStKdK5CR7wgpjOe2L" name="Model Design Backend">
    <mxGraphModel dx="2421" dy="2101" grid="1" gridSize="10" guides="1" tooltips="1" connect="1" arrows="1" fold="1" page="1" pageScale="1" pageWidth="827" pageHeight="1169" math="0" shadow="0">
      <root>
        <mxCell id="0" />
        <mxCell id="1" parent="0" />
        <mxCell id="GNNpPVxaINYqyzHHC03T-1" value="Client" style="whiteSpace=wrap;html=1;aspect=fixed;fillColor=#e6d0de;gradientColor=#d5739d;strokeColor=#996185;" vertex="1" parent="1">
          <mxGeometry x="-700" y="220" width="80" height="80" as="geometry" />
        </mxCell>
        <mxCell id="GNNpPVxaINYqyzHHC03T-9" style="edgeStyle=orthogonalEdgeStyle;rounded=0;orthogonalLoop=1;jettySize=auto;html=1;entryX=0;entryY=0.5;entryDx=0;entryDy=0;" edge="1" parent="1" target="GNNpPVxaINYqyzHHC03T-7">
          <mxGeometry relative="1" as="geometry">
            <mxPoint x="-600" y="255" as="sourcePoint" />
          </mxGeometry>
        </mxCell>
        <mxCell id="GNNpPVxaINYqyzHHC03T-11" style="edgeStyle=orthogonalEdgeStyle;rounded=0;orthogonalLoop=1;jettySize=auto;html=1;entryX=0;entryY=0.75;entryDx=0;entryDy=0;" edge="1" parent="1" target="GNNpPVxaINYqyzHHC03T-8">
          <mxGeometry relative="1" as="geometry">
            <mxPoint x="-600" y="255" as="sourcePoint" />
          </mxGeometry>
        </mxCell>
        <mxCell id="GNNpPVxaINYqyzHHC03T-56" style="edgeStyle=orthogonalEdgeStyle;rounded=0;orthogonalLoop=1;jettySize=auto;html=1;entryX=0;entryY=0.5;entryDx=0;entryDy=0;" edge="1" parent="1" source="GNNpPVxaINYqyzHHC03T-74" target="GNNpPVxaINYqyzHHC03T-13">
          <mxGeometry relative="1" as="geometry">
            <Array as="points" />
          </mxGeometry>
        </mxCell>
        <mxCell id="GNNpPVxaINYqyzHHC03T-61" style="edgeStyle=orthogonalEdgeStyle;rounded=0;orthogonalLoop=1;jettySize=auto;html=1;entryX=0;entryY=0.5;entryDx=0;entryDy=0;" edge="1" parent="1" target="GNNpPVxaINYqyzHHC03T-14">
          <mxGeometry relative="1" as="geometry">
            <mxPoint x="-600" y="255" as="sourcePoint" />
            <Array as="points">
              <mxPoint x="-530" y="255" />
              <mxPoint x="-530" y="585" />
            </Array>
          </mxGeometry>
        </mxCell>
        <mxCell id="GNNpPVxaINYqyzHHC03T-4" value="view" style="text;html=1;strokeColor=none;fillColor=none;align=center;verticalAlign=middle;whiteSpace=wrap;rounded=0;" vertex="1" parent="1">
          <mxGeometry x="-690" y="170" width="60" height="30" as="geometry" />
        </mxCell>
        <mxCell id="GNNpPVxaINYqyzHHC03T-6" value="Controller" style="rounded=0;whiteSpace=wrap;html=1;direction=south;fillColor=none;dashed=1;dashPattern=12 12;strokeColor=#3333FF;" vertex="1" parent="1">
          <mxGeometry x="-568.5" y="-90" width="310" height="750" as="geometry" />
        </mxCell>
        <mxCell id="GNNpPVxaINYqyzHHC03T-7" value="Login Controller" style="whiteSpace=wrap;html=1;aspect=fixed;fillColor=#60a917;fontColor=#ffffff;strokeColor=#2D7600;" vertex="1" parent="1">
          <mxGeometry x="-420" y="147.5" width="80" height="80" as="geometry" />
        </mxCell>
        <mxCell id="GNNpPVxaINYqyzHHC03T-8" value="Register Controller" style="whiteSpace=wrap;html=1;aspect=fixed;fillColor=#008a00;fontColor=#ffffff;strokeColor=#005700;" vertex="1" parent="1">
          <mxGeometry x="-420" y="320" width="80" height="80" as="geometry" />
        </mxCell>
        <mxCell id="GNNpPVxaINYqyzHHC03T-10" value="https request" style="text;html=1;strokeColor=none;fillColor=none;align=center;verticalAlign=middle;whiteSpace=wrap;rounded=0;" vertex="1" parent="1">
          <mxGeometry x="-500" y="152.5" width="60" height="30" as="geometry" />
        </mxCell>
        <mxCell id="GNNpPVxaINYqyzHHC03T-12" value="Firts time &lt;br&gt;using app" style="text;html=1;align=center;verticalAlign=middle;resizable=0;points=[];autosize=1;strokeColor=none;fillColor=none;" vertex="1" parent="1">
          <mxGeometry x="-495" y="340" width="80" height="40" as="geometry" />
        </mxCell>
        <mxCell id="GNNpPVxaINYqyzHHC03T-62" style="edgeStyle=orthogonalEdgeStyle;rounded=0;orthogonalLoop=1;jettySize=auto;html=1;entryX=0.5;entryY=0;entryDx=0;entryDy=0;" edge="1" parent="1" source="GNNpPVxaINYqyzHHC03T-13" target="GNNpPVxaINYqyzHHC03T-27">
          <mxGeometry relative="1" as="geometry" />
        </mxCell>
        <mxCell id="GNNpPVxaINYqyzHHC03T-13" value="User Service" style="whiteSpace=wrap;html=1;aspect=fixed;fillColor=#fa6800;fontColor=#000000;strokeColor=#C73500;" vertex="1" parent="1">
          <mxGeometry x="-190" y="10" width="80" height="80" as="geometry" />
        </mxCell>
        <mxCell id="GNNpPVxaINYqyzHHC03T-63" style="edgeStyle=orthogonalEdgeStyle;rounded=0;orthogonalLoop=1;jettySize=auto;html=1;" edge="1" parent="1" source="GNNpPVxaINYqyzHHC03T-14">
          <mxGeometry relative="1" as="geometry">
            <mxPoint x="40" y="310" as="targetPoint" />
          </mxGeometry>
        </mxCell>
        <mxCell id="GNNpPVxaINYqyzHHC03T-14" value="Credentials Service" style="whiteSpace=wrap;html=1;aspect=fixed;fillColor=#1ba1e2;fontColor=#ffffff;strokeColor=#006EAF;" vertex="1" parent="1">
          <mxGeometry x="-190" y="545" width="80" height="80" as="geometry" />
        </mxCell>
        <mxCell id="GNNpPVxaINYqyzHHC03T-30" value="" style="edgeStyle=orthogonalEdgeStyle;rounded=0;orthogonalLoop=1;jettySize=auto;html=1;" edge="1" parent="1" source="GNNpPVxaINYqyzHHC03T-15" target="GNNpPVxaINYqyzHHC03T-27">
          <mxGeometry relative="1" as="geometry" />
        </mxCell>
        <mxCell id="GNNpPVxaINYqyzHHC03T-46" style="edgeStyle=orthogonalEdgeStyle;rounded=0;orthogonalLoop=1;jettySize=auto;html=1;entryX=0.5;entryY=1;entryDx=0;entryDy=0;" edge="1" parent="1" source="GNNpPVxaINYqyzHHC03T-15" target="GNNpPVxaINYqyzHHC03T-7">
          <mxGeometry relative="1" as="geometry">
            <Array as="points">
              <mxPoint x="-380" y="290" />
            </Array>
          </mxGeometry>
        </mxCell>
        <mxCell id="GNNpPVxaINYqyzHHC03T-15" value="Login&amp;nbsp; &amp;nbsp;Service" style="whiteSpace=wrap;html=1;aspect=fixed;fillColor=#60a917;fontColor=#ffffff;strokeColor=#2D7600;" vertex="1" parent="1">
          <mxGeometry x="-190" y="227.5" width="80" height="80" as="geometry" />
        </mxCell>
        <mxCell id="GNNpPVxaINYqyzHHC03T-35" style="edgeStyle=orthogonalEdgeStyle;rounded=0;orthogonalLoop=1;jettySize=auto;html=1;" edge="1" parent="1" source="GNNpPVxaINYqyzHHC03T-18" target="GNNpPVxaINYqyzHHC03T-19">
          <mxGeometry relative="1" as="geometry" />
        </mxCell>
        <mxCell id="GNNpPVxaINYqyzHHC03T-53" style="edgeStyle=orthogonalEdgeStyle;rounded=0;orthogonalLoop=1;jettySize=auto;html=1;entryX=0.75;entryY=1;entryDx=0;entryDy=0;" edge="1" parent="1" source="GNNpPVxaINYqyzHHC03T-18" target="GNNpPVxaINYqyzHHC03T-20">
          <mxGeometry relative="1" as="geometry">
            <Array as="points">
              <mxPoint x="200" y="500" />
              <mxPoint x="-130" y="500" />
            </Array>
          </mxGeometry>
        </mxCell>
        <mxCell id="GNNpPVxaINYqyzHHC03T-18" value="Login and Register Repository" style="whiteSpace=wrap;html=1;aspect=fixed;fillColor=#60a917;fontColor=#ffffff;strokeColor=#2D7600;" vertex="1" parent="1">
          <mxGeometry x="160" y="227.5" width="80" height="80" as="geometry" />
        </mxCell>
        <mxCell id="GNNpPVxaINYqyzHHC03T-19" value="DB" style="shape=cylinder3;whiteSpace=wrap;html=1;boundedLbl=1;backgroundOutline=1;size=15;fillColor=#fad7ac;strokeColor=#b46504;" vertex="1" parent="1">
          <mxGeometry x="330" y="227.5" width="60" height="80" as="geometry" />
        </mxCell>
        <mxCell id="GNNpPVxaINYqyzHHC03T-20" value="&amp;nbsp;Registration Service" style="whiteSpace=wrap;html=1;aspect=fixed;fillColor=#008a00;fontColor=#ffffff;strokeColor=#005700;" vertex="1" parent="1">
          <mxGeometry x="-190" y="400" width="80" height="80" as="geometry" />
        </mxCell>
        <mxCell id="GNNpPVxaINYqyzHHC03T-22" style="edgeStyle=orthogonalEdgeStyle;rounded=0;orthogonalLoop=1;jettySize=auto;html=1;" edge="1" parent="1" source="GNNpPVxaINYqyzHHC03T-8" target="GNNpPVxaINYqyzHHC03T-20">
          <mxGeometry relative="1" as="geometry" />
        </mxCell>
        <mxCell id="GNNpPVxaINYqyzHHC03T-24" value="Request Body" style="text;html=1;strokeColor=none;fillColor=none;align=center;verticalAlign=middle;whiteSpace=wrap;rounded=0;" vertex="1" parent="1">
          <mxGeometry x="-330" y="147.5" width="60" height="30" as="geometry" />
        </mxCell>
        <mxCell id="GNNpPVxaINYqyzHHC03T-25" style="edgeStyle=orthogonalEdgeStyle;rounded=0;orthogonalLoop=1;jettySize=auto;html=1;entryX=0.017;entryY=0.644;entryDx=0;entryDy=0;entryPerimeter=0;" edge="1" parent="1" source="GNNpPVxaINYqyzHHC03T-7" target="GNNpPVxaINYqyzHHC03T-15">
          <mxGeometry relative="1" as="geometry" />
        </mxCell>
        <mxCell id="GNNpPVxaINYqyzHHC03T-33" value="" style="edgeStyle=orthogonalEdgeStyle;rounded=0;orthogonalLoop=1;jettySize=auto;html=1;" edge="1" parent="1" source="GNNpPVxaINYqyzHHC03T-27" target="GNNpPVxaINYqyzHHC03T-18">
          <mxGeometry relative="1" as="geometry" />
        </mxCell>
        <mxCell id="GNNpPVxaINYqyzHHC03T-69" style="edgeStyle=orthogonalEdgeStyle;rounded=0;orthogonalLoop=1;jettySize=auto;html=1;entryX=0;entryY=0.5;entryDx=0;entryDy=0;" edge="1" parent="1" source="GNNpPVxaINYqyzHHC03T-27" target="GNNpPVxaINYqyzHHC03T-64">
          <mxGeometry relative="1" as="geometry">
            <Array as="points">
              <mxPoint x="50" y="80" />
            </Array>
          </mxGeometry>
        </mxCell>
        <mxCell id="GNNpPVxaINYqyzHHC03T-70" style="edgeStyle=orthogonalEdgeStyle;rounded=0;orthogonalLoop=1;jettySize=auto;html=1;entryX=0;entryY=0.5;entryDx=0;entryDy=0;" edge="1" parent="1" source="GNNpPVxaINYqyzHHC03T-27" target="GNNpPVxaINYqyzHHC03T-65">
          <mxGeometry relative="1" as="geometry">
            <Array as="points">
              <mxPoint x="60" y="600" />
            </Array>
          </mxGeometry>
        </mxCell>
        <mxCell id="GNNpPVxaINYqyzHHC03T-27" value="MAPPER MODULE" style="whiteSpace=wrap;html=1;aspect=fixed;fillColor=#d0cee2;strokeColor=#56517e;" vertex="1" parent="1">
          <mxGeometry x="-20" y="227.5" width="80" height="80" as="geometry" />
        </mxCell>
        <mxCell id="GNNpPVxaINYqyzHHC03T-31" value="UserDTO Model" style="text;html=1;strokeColor=none;fillColor=none;align=center;verticalAlign=middle;whiteSpace=wrap;rounded=0;" vertex="1" parent="1">
          <mxGeometry x="-110" y="230" width="60" height="30" as="geometry" />
        </mxCell>
        <mxCell id="GNNpPVxaINYqyzHHC03T-34" value="UserEnity" style="text;html=1;strokeColor=none;fillColor=none;align=center;verticalAlign=middle;whiteSpace=wrap;rounded=0;" vertex="1" parent="1">
          <mxGeometry x="70" y="230" width="60" height="30" as="geometry" />
        </mxCell>
        <mxCell id="GNNpPVxaINYqyzHHC03T-36" value="verify User" style="text;html=1;strokeColor=none;fillColor=none;align=center;verticalAlign=middle;whiteSpace=wrap;rounded=0;" vertex="1" parent="1">
          <mxGeometry x="250" y="230" width="60" height="30" as="geometry" />
        </mxCell>
        <mxCell id="GNNpPVxaINYqyzHHC03T-38" value="" style="edgeStyle=orthogonalEdgeStyle;rounded=0;orthogonalLoop=1;jettySize=auto;html=1;exitX=-0.014;exitY=0.82;exitDx=0;exitDy=0;exitPerimeter=0;" edge="1" parent="1" source="GNNpPVxaINYqyzHHC03T-18">
          <mxGeometry relative="1" as="geometry">
            <mxPoint x="180" y="292.5" as="sourcePoint" />
            <mxPoint x="60" y="292.5" as="targetPoint" />
          </mxGeometry>
        </mxCell>
        <mxCell id="GNNpPVxaINYqyzHHC03T-39" value="credentials Ok" style="text;html=1;strokeColor=none;fillColor=none;align=center;verticalAlign=middle;whiteSpace=wrap;rounded=0;" vertex="1" parent="1">
          <mxGeometry x="80" y="300" width="60" height="30" as="geometry" />
        </mxCell>
        <mxCell id="GNNpPVxaINYqyzHHC03T-42" style="edgeStyle=orthogonalEdgeStyle;rounded=0;orthogonalLoop=1;jettySize=auto;html=1;entryX=0.85;entryY=1.012;entryDx=0;entryDy=0;entryPerimeter=0;" edge="1" parent="1">
          <mxGeometry relative="1" as="geometry">
            <mxPoint x="181" y="307.5" as="sourcePoint" />
            <mxPoint x="-141" y="308.46000000000004" as="targetPoint" />
            <Array as="points">
              <mxPoint x="181" y="337.54" />
              <mxPoint x="-141" y="337.54" />
            </Array>
          </mxGeometry>
        </mxCell>
        <mxCell id="GNNpPVxaINYqyzHHC03T-45" value="Http response: 200 OK with jwt token" style="text;html=1;strokeColor=none;fillColor=none;align=center;verticalAlign=middle;whiteSpace=wrap;rounded=0;" vertex="1" parent="1">
          <mxGeometry x="-380" y="247.5" width="90" height="40" as="geometry" />
        </mxCell>
        <mxCell id="GNNpPVxaINYqyzHHC03T-47" style="edgeStyle=orthogonalEdgeStyle;rounded=0;orthogonalLoop=1;jettySize=auto;html=1;entryX=0.375;entryY=1.031;entryDx=0;entryDy=0;entryPerimeter=0;" edge="1" parent="1" source="GNNpPVxaINYqyzHHC03T-20" target="GNNpPVxaINYqyzHHC03T-27">
          <mxGeometry relative="1" as="geometry" />
        </mxCell>
        <mxCell id="GNNpPVxaINYqyzHHC03T-48" value="Request Body" style="text;html=1;strokeColor=none;fillColor=none;align=center;verticalAlign=middle;whiteSpace=wrap;rounded=0;" vertex="1" parent="1">
          <mxGeometry x="-260" y="400" width="60" height="30" as="geometry" />
        </mxCell>
        <mxCell id="GNNpPVxaINYqyzHHC03T-49" value="UserDTO Model" style="text;html=1;strokeColor=none;fillColor=none;align=center;verticalAlign=middle;whiteSpace=wrap;rounded=0;" vertex="1" parent="1">
          <mxGeometry x="-100" y="400" width="60" height="30" as="geometry" />
        </mxCell>
        <mxCell id="GNNpPVxaINYqyzHHC03T-54" value="Save &lt;br&gt;Ok" style="text;html=1;strokeColor=none;fillColor=none;align=center;verticalAlign=middle;whiteSpace=wrap;rounded=0;" vertex="1" parent="1">
          <mxGeometry x="80" y="460" width="60" height="30" as="geometry" />
        </mxCell>
        <mxCell id="GNNpPVxaINYqyzHHC03T-64" value="User Repository" style="whiteSpace=wrap;html=1;aspect=fixed;fillColor=#fa6800;fontColor=#000000;strokeColor=#C73500;" vertex="1" parent="1">
          <mxGeometry x="160" y="40" width="80" height="80" as="geometry" />
        </mxCell>
        <mxCell id="GNNpPVxaINYqyzHHC03T-65" value="Credentials Repository" style="whiteSpace=wrap;html=1;aspect=fixed;fillColor=#1ba1e2;fontColor=#ffffff;strokeColor=#006EAF;" vertex="1" parent="1">
          <mxGeometry x="160" y="560" width="80" height="80" as="geometry" />
        </mxCell>
        <mxCell id="GNNpPVxaINYqyzHHC03T-71" style="edgeStyle=orthogonalEdgeStyle;rounded=0;orthogonalLoop=1;jettySize=auto;html=1;" edge="1" parent="1" source="GNNpPVxaINYqyzHHC03T-64">
          <mxGeometry relative="1" as="geometry">
            <mxPoint x="360" y="230" as="targetPoint" />
          </mxGeometry>
        </mxCell>
        <mxCell id="GNNpPVxaINYqyzHHC03T-72" style="edgeStyle=orthogonalEdgeStyle;rounded=0;orthogonalLoop=1;jettySize=auto;html=1;entryX=0.5;entryY=1;entryDx=0;entryDy=0;entryPerimeter=0;" edge="1" parent="1" source="GNNpPVxaINYqyzHHC03T-65" target="GNNpPVxaINYqyzHHC03T-19">
          <mxGeometry relative="1" as="geometry" />
        </mxCell>
        <mxCell id="GNNpPVxaINYqyzHHC03T-73" value="Credentials Controller" style="whiteSpace=wrap;html=1;aspect=fixed;fillColor=#1ba1e2;fontColor=#ffffff;strokeColor=#006EAF;" vertex="1" parent="1">
          <mxGeometry x="-415" y="540" width="80" height="80" as="geometry" />
        </mxCell>
        <mxCell id="GNNpPVxaINYqyzHHC03T-75" value="" style="edgeStyle=orthogonalEdgeStyle;rounded=0;orthogonalLoop=1;jettySize=auto;html=1;entryX=0;entryY=0.5;entryDx=0;entryDy=0;" edge="1" parent="1" target="GNNpPVxaINYqyzHHC03T-74">
          <mxGeometry relative="1" as="geometry">
            <mxPoint x="-600" y="255" as="sourcePoint" />
            <mxPoint x="-190" y="50" as="targetPoint" />
            <Array as="points">
              <mxPoint x="-530" y="255" />
              <mxPoint x="-530" y="50" />
            </Array>
          </mxGeometry>
        </mxCell>
        <mxCell id="GNNpPVxaINYqyzHHC03T-74" value="User Controller" style="whiteSpace=wrap;html=1;aspect=fixed;fillColor=#fa6800;fontColor=#000000;strokeColor=#C73500;" vertex="1" parent="1">
          <mxGeometry x="-420" y="10" width="80" height="80" as="geometry" />
        </mxCell>
        <mxCell id="GNNpPVxaINYqyzHHC03T-82" value="https request&lt;br&gt;after login" style="text;html=1;strokeColor=none;fillColor=none;align=center;verticalAlign=middle;whiteSpace=wrap;rounded=0;" vertex="1" parent="1">
          <mxGeometry x="-510" y="10" width="60" height="30" as="geometry" />
        </mxCell>
        <mxCell id="GNNpPVxaINYqyzHHC03T-84" value="https request after login" style="text;html=1;strokeColor=none;fillColor=none;align=center;verticalAlign=middle;whiteSpace=wrap;rounded=0;" vertex="1" parent="1">
          <mxGeometry x="-510" y="545" width="60" height="30" as="geometry" />
        </mxCell>
        <mxCell id="GNNpPVxaINYqyzHHC03T-85" value="" style="rounded=0;whiteSpace=wrap;html=1;direction=south;fillColor=none;dashed=1;dashPattern=12 12;strokeColor=#FF99FF;" vertex="1" parent="1">
          <mxGeometry x="-730" y="177.5" width="130" height="160" as="geometry" />
        </mxCell>
        <mxCell id="GNNpPVxaINYqyzHHC03T-87" value="Controller" style="rounded=0;whiteSpace=wrap;html=1;direction=south;fillColor=none;dashed=1;dashPattern=12 12;strokeColor=#33ff70;" vertex="1" parent="1">
          <mxGeometry x="-240" y="-90" width="310" height="750" as="geometry" />
        </mxCell>
        <mxCell id="GNNpPVxaINYqyzHHC03T-88" value="Controller" style="rounded=0;whiteSpace=wrap;html=1;direction=south;fillColor=none;dashed=1;dashPattern=12 12;strokeColor=#CC6600;" vertex="1" parent="1">
          <mxGeometry x="90" y="-90" width="310" height="750" as="geometry" />
        </mxCell>
        <mxCell id="GNNpPVxaINYqyzHHC03T-89" value="CONTROLLER LAYER" style="text;html=1;strokeColor=#10739e;fillColor=#b1ddf0;align=center;verticalAlign=middle;whiteSpace=wrap;rounded=0;" vertex="1" parent="1">
          <mxGeometry x="-470" y="-60" width="140" height="30" as="geometry" />
        </mxCell>
        <mxCell id="GNNpPVxaINYqyzHHC03T-90" value="SERVICE LAYER" style="text;html=1;strokeColor=#82b366;fillColor=#d5e8d4;align=center;verticalAlign=middle;whiteSpace=wrap;rounded=0;gradientColor=#97d077;" vertex="1" parent="1">
          <mxGeometry x="-140" y="-60" width="140" height="30" as="geometry" />
        </mxCell>
        <mxCell id="GNNpPVxaINYqyzHHC03T-91" value="REPOSITORY LAYER" style="text;html=1;strokeColor=#d6b656;fillColor=#fff2cc;align=center;verticalAlign=middle;whiteSpace=wrap;rounded=0;gradientColor=#ffd966;" vertex="1" parent="1">
          <mxGeometry x="190" y="-60" width="140" height="30" as="geometry" />
        </mxCell>
      </root>
    </mxGraphModel>
  </diagram>
</mxfile>
